<svg xmlns="http://www.w3.org/2000/svg" xmlns:xlink="http://www.w3.org/1999/xlink">
  <defs>
    <symbol id="icon-phone" viewBox="0 0 24 24"><path d="M22 16.92v3a2 2 0 0 1-2.18 2 19.79 19.79 0 0 1-8.63-3.07 19.5 19.5 0 0 1-6-6 19.79 19.79 0 0 1-3.07-8.67A2 2 0 0 1 4.11 2h3a2 2 0 0 1 2 1.72 12.84 12.84 0 0 0 .7 2.81 2 2 0 0 1-.45 2.11L8.09 9.91a16 16 0 0 0 6 6l1.27-1.27a2 2 0 0 1 2.11-.45 12.84 12.84 0 0 0 2.81.7A2 2 0 0 1 22 16.92z"/></symbol>
    <symbol id="icon-file-text" viewBox="0 0 24 24"><path d="M14.5 2H6a2 2 0 0 0-2 2v16a2 2 0 0 0 2 2h12a2 2 0 0 0 2-2V7.5L14.5 2z"/><path d="M14 2v6h6"/><path d="M16 13H8"/><path d="M16 17H8"/><path d="M10 9H8"/></symbol>
    <symbol id="icon-target" viewBox="0 0 24 24"><circle cx="12" cy="12" r="10"/><circle cx="12" cy="12" r="6"/><circle cx="12" cy="12" r="2"/></symbol>
    <symbol id="icon-map-pin" viewBox="0 0 24 24"><path d="M20 10c0 6-8 12-8 12s-8-6-8-12a8 8 0 0 1 16 0Z"/><circle cx="12" cy="10" r="3"/></symbol>
    <symbol id="icon-smartphone" viewBox="0 0 24 24"><rect width="14" height="20" x="5" y="2" rx="2" ry="2"/><path d="M12 18h.01"/></symbol>
    <symbol id="icon-wrench" viewBox="0 0 24 24"><path d="M14.7 6.3a1 1 0 0 0 0 1.4l1.6 1.6a1 1 0 0 0 1.4 0l3.77-3.77a6 6 0 0 1-7.94 7.94l-6.91 6.91a2.12 2.12 0 0 1-3-3l6.91-6.91a6 6 0 0 1 7.94-7.94l-3.76 3.76z"/></symbol>
    <symbol id="icon-building-2" viewBox="0 0 24 24"><path d="M6 22V4a2 2 0 0 1 2-2h8a2 2 0 0 1 2 2v18Z"/><path d="M6 12H4a2 2 0 0 0-2 2v6a2 2 0 0 0 2 2h2"/><path d="M18 9h2a2 2 0 0 1 2 2v9a2 2 0 0 1-2 2h-2"/><path d="M10 6h4"/><path d="M10 10h4"/><path d="M10 14h4"/><path d="M10 18h4"/></symbol>
    <symbol id="icon-factory" viewBox="0 0 24 24"><path d="M2 20a2 2 0 0 0 2 2h16a2 2 0 0 0 2-2V8l-7 5V8l-7 5V4a2 2 0 0 0-2-2H4a2 2 0 0 0-2 2Z"/><path d="M17 18h1"/><path d="M12 18h1"/><path d="M7 18h1"/></symbol>
    <symbol id="icon-scale" viewBox="0 0 24 24"><path d="m16 16 3-8 3 8c-.87.65-1.92 1-3 1s-2.13-.35-3-1Z"/><path d="m8 16-3-8-3 8c.87.65 1.92 1 3 1s2.13-.35 3-1Z"/><path d="M12 3v18"/><path d="M3 7h2c2 0 5-1 7-2 2 1 5 2 7 2h2"/></symbol>
    <symbol id="icon-alert-circle" viewBox="0 0 24 24"><circle cx="12" cy="12" r="10"/><path d="M12 8v4"/><path d="M12 16h.01"/></symbol>
    <symbol id="icon-clipboard-list" viewBox="0 0 24 24"><rect width="8" height="4" x="8" y="2" rx="1" ry="1"/><path d="M16 4h2a2 2 0 0 1 2 2v14a2 2 0 0 1-2 2H6a2 2 0 0 1-2-2V6a2 2 0 0 1 2-2h2"/><path d="M12 11h4"/><path d="M12 16h4"/><path d="M8 11h.01"/><path d="M8 16h.01"/></symbol>
    <symbol id="icon-bar-chart-2" viewBox="0 0 24 24"><path d="M18 20V10"/><path d="M12 20V4"/><path d="M6 20v-6"/></symbol>
    <symbol id="icon-zap" viewBox="0 0 24 24"><path d="M13 2 3 14h9l-1 8 10-12h-9l1-8z"/></symbol>
    <symbol id="icon-shield" viewBox="0 0 24 24"><path d="M12 22s8-4 8-10V5l-8-3-8 3v7c0 6 8 10 8 10Z"/></symbol>
    <symbol id="icon-eye" viewBox="0 0 24 24"><path d="M2 12s3-7 10-7 10 7 10 7-3 7-10 7-10-7-10-7Z"/><circle cx="12" cy="12" r="3"/></symbol>
    <symbol id="icon-banknote" viewBox="0 0 24 24"><rect width="20" height="12" x="2" y="6" rx="2"/><circle cx="12" cy="12" r="2"/><path d="M6 12h.01M18 12h.01"/></symbol>
    <symbol id="icon-users" viewBox="0 0 24 24"><path d="M16 21v-2a4 4 0 0 0-4-4H6a4 4 0 0 0-4 4v2"/><circle cx="9" cy="7" r="4"/><path d="M22 21v-2a4 4 0 0 0-3-3.87"/><path d="M16 3.13a4 4 0 0 1 0 7.75"/></symbol>
    <symbol id="icon-circle-check" viewBox="0 0 24 24"><circle cx="12" cy="12" r="10"/><path d="m9 12 2 2 4-4"/></symbol>
    <symbol id="icon-flask" viewBox="0 0 24 24"><path d="M10 2v7.31"/><path d="M14 9.3V2"/><path d="M8.5 2h7"/><path d="M14 9.3a6 6 0 0 1 5.13 10.66A2 2 0 0 1 17.34 22H6.66a2 2 0 0 1-1.79-1.04 6 6 0 0 1 5.13-10.66Z"/><path d="M6.67 22 12 13.73l5.33 8.27"/></symbol>
    <symbol id="icon-search" viewBox="0 0 24 24"><circle cx="11" cy="11" r="8"/><path d="m21 21-4.3-4.3"/></symbol>
    <symbol id="icon-car" viewBox="0 0 24 24"><path d="M19 17h2c.6 0 1-.4 1-1v-3c0-.9-.7-1.7-1.5-1.9C18.7 10.6 16 10 16 10s-1.3-1.4-2.2-2.3c-.5-.4-1.1-.7-1.8-.7H5c-.6 0-1.1.4-1.4.9l-1.4 2.9A3.7 3.7 0 0 0 2 12v4c0 .6.4 1 1 1h2"/><circle cx="7" cy="17" r="2"/><path d="M9 17h6"/><circle cx="17" cy="17" r="2"/></symbol>
    <symbol id="icon-calendar" viewBox="0 0 24 24"><rect width="18" height="18" x="3" y="4" rx="2" ry="2"/><path d="M16 2v4M8 2v4M3 10h18"/></symbol>
    <symbol id="icon-clock" viewBox="0 0 24 24"><circle cx="12" cy="12" r="10"/><path d="M12 6v6l4 2"/></symbol>
    <symbol id="icon-thermometer" viewBox="0 0 24 24"><path d="M14 4v10.54a4 4 0 1 1-4 0V4a2 2 0 0 1 4 0Z"/></symbol>
    <symbol id="icon-droplets" viewBox="0 0 24 24"><path d="M7 16.3c2.2 2 4.8 2.8 6.8 2.8s4.6-.8 6.8-2.8c-2.2-2-4.8-2.8-6.8-2.8s-4.6.8-6.8 2.8Z"/><path d="M12 2v6.3"/></symbol>
    <symbol id="icon-flame" viewBox="0 0 24 24"><path d="M8.5 14.5A2.5 2.5 0 0 0 11 12c0-1.38-.5-2-1-3-1.072-2.143-.224-4.054 2-6 .5 2.5 2 4.9 4 6.5 2 1.6 3 3.5 3 5.5a7 7 0 1 1-14 0c0-1.153.433-2.294 1-3a2.5 2.5 0 0 0 2.5 2.5z"/></symbol>
    <symbol id="icon-lightbulb" viewBox="0 0 24 24"><path d="M15 14c.2-1 .7-1.7 1.5-2.5 1-.9 1.5-2.2 1.5-3.5A6 6 0 0 0 6 8c0 1 .2 2.2 1.5 3.5.7.7 1.3 1.5 1.5 2.5"/><path d="M9 18h6"/><path d="M10 22h4"/></symbol>
    <symbol id="icon-sliders" viewBox="0 0 24 24"><path d="M4 21v-7M4 10V3M12 21v-9M12 8V3M20 21v-5M20 12V3M1 14h4M8 8h4M17 16h4"/></symbol>
    <symbol id="icon-volume-2" viewBox="0 0 24 24"><path d="M11 5 6 9H2v6h4l5 4V5Z"/><path d="M15.54 8.46a5 5 0 0 1 0 7.07"/><path d="M19.07 4.93a10 10 0 0 1 0 14.14"/></symbol>
    <symbol id="icon-cpu" viewBox="0 0 24 24"><rect width="16" height="16" x="4" y="4" rx="2"/><rect width="6" height="6" x="9" y="9" rx="1"/><path d="M15 2v2M15 20v2M2 15h2M2 9h2M20 15h2M20 9h2M9 2v2M15 2v2M9 20v2M15 20v2"/></symbol>
    <symbol id="icon-link" viewBox="0 0 24 24"><path d="M10 13a5 5 0 0 0 7.54.54l3-3a5 5 0 0 0-7.07-7.07l-1.72 1.71"/><path d="M14 11a5 5 0 0 0-7.54-.54l-3 3a5 5 0 0 0 7.07 7.07l1.71-1.71"/></symbol>
    <symbol id="icon-refresh-cw" viewBox="0 0 24 24"><path d="M3 12a9 9 0 0 1 9-9 9.75 9.75 0 0 1 6.74 2.74L21 8"/><path d="M21 3v5h-5M3 21a9 9 0 0 0 9 9 9.75 9.75 0 0 0 6.74-2.74L3 16"/><path d="M8 16H3v5"/></symbol>
    <symbol id="icon-sun" viewBox="0 0 24 24"><circle cx="12" cy="12" r="4"/><path d="M12 2v2M12 20v2M4.93 4.93l1.41 1.41M17.66 17.66l1.41 1.41M2 12h2M20 12h2M6.34 17.66l-1.41 1.41M19.07 4.93l-1.41 1.41"/></symbol>
    <symbol id="icon-snowflake" viewBox="0 0 24 24"><path d="m10 20-1.25-2.5L6 18"/><path d="M6 12l-2-.5L10 4"/><path d="m14 4 1.36 2.72L18 6"/><path d="m18 12 2 .5-4 7.5"/><path d="m14 20-1.36-2.72L14 18"/><path d="m10 4 1.25 2.5L14 4"/><path d="M14 12l-4-2v4l4-2Z"/></symbol>
    <symbol id="icon-wind" viewBox="0 0 24 24"><path d="M17.7 7.7a2.5 2.5 0 1 1 1.8 4.3H2"/><path d="M9.6 4.6A2 2 0 1 1 11 8H2"/><path d="M12.6 19.4A2 2 0 1 0 14 16H2"/></symbol>
    <symbol id="icon-cog" viewBox="0 0 24 24"><path d="M12 15a3 3 0 1 0 0-6 3 3 0 0 0 0 6Z"/><path d="M19.4 15a1.65 1.65 0 0 0 .33 1.82l.06.06a2 2 0 0 1 0 2.83 2 2 0 0 1-2.83 0l-.06-.06a1.65 1.65 0 0 0-1.82-.33 1.65 1.65 0 0 0-1 1.51V21a2 2 0 0 1-2 2 2 2 0 0 1-2-2v-.09A1.65 1.65 0 0 0 9 19.4a1.65 1.65 0 0 0-1.82.33l-.06.06a2 2 0 0 1-2.83 0 2 2 0 0 1 0-2.83l.06-.06a1.65 1.65 0 0 0 .33-1.82 1.65 1.65 0 0 0-1.51-1H3a2 2 0 0 1-2-2 2 2 0 0 1 2-2h.09A1.65 1.65 0 0 0 4.6 9a1.65 1.65 0 0 0-.33-1.82l-.06-.06a2 2 0 0 1 0-2.83 2 2 0 0 1 2.83 0l.06.06a1.65 1.65 0 0 0 1.82.33H9a1.65 1.65 0 0 0 1-1.51V3a2 2 0 0 1 2-2 2 2 0 0 1 2 2v.09a1.65 1.65 0 0 0 1 1.51 1.65 1.65 0 0 0 1.82-.33l.06-.06a2 2 0 0 1 2.83 0 2 2 0 0 1 0 2.83l-.06.06a1.65 1.65 0 0 0-.33 1.82V9a1.65 1.65 0 0 0 1.51 1H21a2 2 0 0 1 2 2 2 2 0 0 1-2 2h-.09a1.65 1.65 0 0 0-1.51 1Z"/></symbol>
    <symbol id="icon-mail" viewBox="0 0 24 24"><rect width="20" height="16" x="2" y="4" rx="2"/><path d="m22 7-8.97 5.7a1.94 1.94 0 0 1-2.06 0L2 7"/></symbol>
    <symbol id="icon-paperclip" viewBox="0 0 24 24"><path d="m21.44 11.05-9.19 9.19a6 6 0 0 1-8.49-8.49l8.38-8.38A4 4 0 1 1 18 18l-8.38-8.38a2 2 0 0 0-2.83 2.83l8.49 8.49"/></symbol>
    <symbol id="icon-info" viewBox="0 0 24 24"><circle cx="12" cy="12" r="10"/><path d="M12 16v-4"/><path d="M12 8h.01"/></symbol>
    <symbol id="icon-hammer" viewBox="0 0 24 24"><path d="m15 12-8.5 8.5c-.83.83-2.17.83-3 0 0 0 0 0 0 0a2.12 2.12 0 0 1 0-3L13"/><path d="m17.64 15 2.35-2.35a2.12 2.12 0 0 0 0-3v0L18 6.5l-7 7 1.42 1.42L18 8.5l.71.71a2.12 2.12 0 0 1 0 3v0Z"/></symbol>
    <symbol id="icon-pen-line" viewBox="0 0 24 24"><path d="M12 20h9"/><path d="M16.5 3.5a2.12 2.12 0 0 1 3 3L7 19l-4 1 1-4Z"/></symbol>
    <symbol id="icon-circle-dot" viewBox="0 0 24 24"><circle cx="12" cy="12" r="10"/><circle cx="12" cy="12" r="3"/></symbol>
  </defs>
</svg>
